<svg width="17" height="20" viewBox="0 0 17 20" fill="none" xmlns="http://www.w3.org/2000/svg">
<path d="M0 13.8111C0 13.0889 0.666669 12.5556 1.37778 12.7111L5.33334 13.6V1.66667C5.33334 0.744444 6.07778 0 7 0C7.92222 0 8.66667 0.744444 8.66667 1.66667V8.33333H9.67778C10.0222 8.33333 10.3667 8.41111 10.6667 8.56667L15.2111 10.8333C16.0667 11.2556 16.5556 12.1889 16.4222 13.1333L15.7222 18.0889C15.5667 19.1889 14.6222 20 13.5222 20H6.67778C6.08889 20 5.24445 19.7667 4.83334 19.3444L0.311111 14.5778C0.111111 14.3778 0 14.1 0 13.8111Z" fill="black"/>
</svg>
