<?xml version="1.0" encoding="UTF-8"?>
<svg version="1.1" xmlns="http://www.w3.org/2000/svg" width="180" height="180">
<path d="M0 0 C9.47086908 5.97350236 16.1502825 13.48295829 19.44921875 24.30859375 C22.28955077 36.99281618 20.23793757 48.48095803 13.64453125 59.66796875 C11.45703125 62.79296875 11.45703125 62.79296875 9.64453125 64.66796875 C8.98453125 64.66796875 8.32453125 64.66796875 7.64453125 64.66796875 C7.64453125 65.32796875 7.64453125 65.98796875 7.64453125 66.66796875 C-3.33681336 75.40822262 -14.67069098 76.61000008 -28.35546875 75.66796875 C-31.64826697 75.09116134 -34.38165768 74.17924979 -37.35546875 72.66796875 C-38.02578125 72.32765625 -38.69609375 71.98734375 -39.38671875 71.63671875 C-48.87682302 66.2346594 -54.78622362 58.9567058 -58.35546875 48.66796875 C-61.51726134 35.04793912 -58.65350217 22.39003128 -51.35546875 10.66796875 C-48.93631519 7.91893061 -46.34365909 5.77264519 -43.35546875 3.66796875 C-42.68128906 3.18585937 -42.00710937 2.70375 -41.3125 2.20703125 C-29.78436311 -5.50812419 -12.41048097 -6.19656183 0 0 Z M-36.29760742 18.69238281 C-36.64670166 19.34432617 -36.9957959 19.99626953 -37.35546875 20.66796875 C-36.69538818 20.8474707 -36.03530762 21.02697266 -35.35522461 21.21191406 C-13.85618194 27.26564642 -13.85618194 27.26564642 -9.73046875 34.60546875 C-8.88903729 36.6060928 -8.09439233 38.62725921 -7.35546875 40.66796875 C-6.40623778 42.43438544 -5.42957276 44.18651714 -4.41796875 45.91796875 C-3.72910871 47.16721976 -3.0410275 48.41690302 -2.35546875 49.66796875 C-0.75396637 48.45346733 -0.75396637 48.45346733 0.64453125 46.66796875 C0.90237984 44.5610558 0.90237984 44.5610558 0.51953125 42.16796875 C0.40480469 41.21277344 0.29007813 40.25757812 0.171875 39.2734375 C-0.93198885 31.72627945 -2.11544454 24.19390184 -3.35546875 16.66796875 C-7.71534947 16.56906211 -12.07463548 16.49648499 -16.43530273 16.44824219 C-17.91849136 16.42813116 -19.40160074 16.40083801 -20.88452148 16.36621094 C-23.0169631 16.31766523 -25.14835652 16.2949968 -27.28125 16.27734375 C-29.20578003 16.24592285 -29.20578003 16.24592285 -31.16918945 16.21386719 C-34.44700122 16.34685298 -34.44700122 16.34685298 -36.29760742 18.69238281 Z M-46.35546875 30.66796875 C-47.01546875 31.98796875 -47.67546875 33.30796875 -48.35546875 34.66796875 C-45.44036123 35.81779681 -42.52312441 36.96212363 -39.60546875 38.10546875 C-38.78046875 38.43095703 -37.95546875 38.75644531 -37.10546875 39.09179688 C-35.90664062 39.56069336 -35.90664062 39.56069336 -34.68359375 40.0390625 C-33.95043945 40.3270874 -33.21728516 40.6151123 -32.46191406 40.91186523 C-30.37423135 41.71603661 -30.37423135 41.71603661 -28.1940918 42.11938477 C-25.13047914 43.03346492 -24.40045658 45.45635129 -22.91796875 48.16796875 C-22.02078125 49.78445312 -22.02078125 49.78445312 -21.10546875 51.43359375 C-20.52796875 52.5009375 -19.95046875 53.56828125 -19.35546875 54.66796875 C-18.37745501 56.41861334 -17.39844835 58.16870401 -16.41796875 59.91796875 C-15.72910871 61.16721976 -15.0410275 62.41690302 -14.35546875 63.66796875 C-12.75396637 62.45346733 -12.75396637 62.45346733 -11.35546875 60.66796875 C-11.09762016 58.5610558 -11.09762016 58.5610558 -11.48046875 56.16796875 C-11.59519531 55.21277344 -11.70992187 54.25757812 -11.828125 53.2734375 C-12.93212623 45.72534018 -14.12727945 38.19730313 -15.35546875 30.66796875 C-25.58546875 30.66796875 -35.81546875 30.66796875 -46.35546875 30.66796875 Z " fill="#46A571" transform="translate(110.35546875,53.33203125)"/>
<path d="M0 0 C-1.41773462 3.54433654 -2.67612238 4.33806119 -6 6 C-7.26804566 8.0335948 -7.26804566 8.0335948 -8 10 C-8 6.45595664 -7.39010515 5.89732095 -5.125 3.3125 C-4.59132813 2.68988281 -4.05765625 2.06726562 -3.5078125 1.42578125 C-2 0 -2 0 0 0 Z " fill="#317E53" transform="translate(66,59)"/>
</svg>
