<?xml version="1.0" encoding="UTF-8"?>
<svg id="Layer_1" data-name="Layer 1" xmlns="http://www.w3.org/2000/svg" viewBox="212 452 656 176">
  <defs>
    <style>
      .cls-1 {
        fill: #fff;
      }

      .cls-2 {
        fill: #4aad77;
      }
    </style>
  </defs>
  <g>
    <path class="cls-1" d="m453.29,513.5c-11.02,0-19.25,4.05-19.25,13.17,0,6.84,3.93,10.01,16.97,12.29l9.75,1.77c13.43,2.53,25.71,8.11,25.71,23.56,0,16.59-13.93,23.81-32.04,23.81s-33.95-9.12-34.71-29.26h12.03c.88,14.06,10.64,17.86,22.67,17.86s20.01-3.42,20.01-12.41c0-7.6-9.12-11.15-18.11-12.67l-9.88-1.77c-11.78-2.15-24.44-6.84-24.44-23.05s13.93-24.7,31.29-24.7,31.41,8.23,32.04,26.35h-12.29c-.88-10.64-8.86-14.95-19.76-14.95Z"/>
    <path class="cls-1" d="m535.87,522.74h14.31l-25.33,26.35,24.7,37.87h-13.81l-18.87-29.51-12.92,13.17v16.34h-11.78v-83.6h11.9l-.38,56.75h1.14l.12-1.27c.25-2.41.51-5.7,3.55-8.74l27.36-27.36Z"/>
    <path class="cls-1" d="m578.18,588.23c-17.61-.38-32.17-11.02-32.43-33.19,0-19.13,11.53-33.57,32.04-33.57s30.53,11.78,31.29,29.39c.13,2.66,0,4.94-.38,7.85h-51.05c1.52,12.67,10.26,18.87,20.01,19.13,9.37.51,17.1-4.94,18.62-13.55h11.53c-1.14,14.57-14.69,24.45-29.64,23.94Zm19.13-38.38v-.63c0-10.89-8.49-17.23-19.76-17.23s-18.37,6.97-19.76,17.86h39.52Z"/>
    <path class="cls-1" d="m626.81,503.36v83.6h-11.9v-83.6h11.9Z"/>
    <path class="cls-1" d="m662.15,503.36h24.45l29.64,83.6h-13.17l-10.14-27.49h-37.36l-9.88,27.49h-13.17l29.64-83.6Zm27.36,44.71l-14.06-39.65h-2.28l-14.06,39.65h30.4Z"/>
    <path class="cls-1" d="m722.06,522.74h11.91l.13,20.39h1.26l.13-1.14c.76-12.54,12.54-20.52,25.59-20.52,17.73,0,30.65,11.78,30.65,32.93s-12.92,33.82-30.65,33.82c-13.04,0-24.19-8.11-25.71-21.91l-.12-1.14h-1.27l.13,40.41h-12.04l-.12-50.41.12-32.43Zm37.37,53.96c11.9,0,20.14-7.98,20.27-22.29-.13-14.19-8.36-21.41-20.27-21.41-12.67,0-21.66,7.98-21.79,22.29-.12,13.43,9.12,21.41,21.79,21.41Z"/>
    <path class="cls-1" d="m797.67,522.74h11.91l.13,20.39h1.26l.13-1.14c.76-12.54,12.54-20.52,25.59-20.52,17.73,0,30.65,11.78,30.65,32.93s-12.92,33.82-30.65,33.82c-13.04,0-24.19-8.11-25.71-21.91l-.12-1.14h-1.27l.13,40.41h-12.04l-.12-50.41.12-32.43Zm37.37,53.96c11.9,0,20.14-7.98,20.27-22.29-.13-14.19-8.36-21.41-20.27-21.41-12.67,0-21.66,7.98-21.79,22.29-.12,13.43,9.12,21.41,21.79,21.41Z"/>
  </g>
  <path class="cls-2" d="m292.72,452.77c-42.34,3.61-76.09,37.36-79.7,79.7-4.79,56.2,38.56,99.56,94.77,94.77,42.34-3.61,76.09-37.36,79.7-79.7,4.79-56.2-38.56-99.56-94.77-94.77Zm18.02,151.06l-26.44-47.03c-.21-.38-.56-.67-.98-.82l-50.92-17.83c-1.19-.42-1.6-1.89-.79-2.86l7.37-8.8c.34-.4.83-.64,1.36-.64l68.25-.87c.89-.01,1.66.63,1.8,1.51l11.06,67.36c.09.52-.06,1.05-.4,1.45l-7.37,8.8c-.81.97-2.34.82-2.95-.27Zm26.88-31.62l-26.44-47.03c-.21-.38-.56-.67-.98-.82l-50.92-17.83c-1.19-.42-1.6-1.89-.79-2.86l7.37-8.8c.34-.4.83-.64,1.36-.64l68.26-.87c.89-.01,1.66.63,1.8,1.51l11.06,67.36c.09.52-.06,1.05-.4,1.45l-7.37,8.8c-.81.97-2.34.82-2.95-.27Z"/>
</svg>
