<svg width="20" height="16" viewBox="0 0 20 16" fill="none" xmlns="http://www.w3.org/2000/svg">
<path d="M8.04762 10.9524C8.42857 11.3333 8.92064 11.5197 9.52381 11.5114C10.127 11.5038 10.5714 11.2857 10.8571 10.8571L14.881 4.83333C15.0238 4.61111 15.0038 4.40889 14.821 4.22667C14.6388 4.04381 14.4365 4.02381 14.2143 4.16667L8.19048 8.19048C7.76191 8.47619 7.53588 8.9127 7.51238 9.5C7.48826 10.0873 7.66667 10.5714 8.04762 10.9524ZM2.95238 15.2381C2.61905 15.2381 2.30159 15.1588 2 15C1.69841 14.8412 1.46031 14.619 1.28571 14.3333C0.873019 13.619 0.555552 12.8612 0.333333 12.06C0.111111 11.2581 0 10.4127 0 9.52381C0 8.20635 0.250159 6.97207 0.750476 5.82095C1.25016 4.67048 1.9327 3.66254 2.7981 2.79714C3.66286 1.93238 4.6746 1.24984 5.83333 0.749524C6.99207 0.249842 8.22222 0 9.52381 0C10.2381 0 10.9286 0.0752381 11.5952 0.225714C12.2619 0.376826 12.9048 0.603174 13.5238 0.904762C13.8571 1.07936 14.0514 1.31746 14.1067 1.61905C14.1626 1.92064 14.0793 2.20635 13.8571 2.47619C13.7302 2.61905 13.5555 2.70635 13.3333 2.7381C13.1111 2.76984 12.9127 2.74603 12.7381 2.66667C12.2302 2.4127 11.7064 2.22222 11.1667 2.09524C10.627 1.96826 10.0793 1.90476 9.52381 1.90476C7.4127 1.90476 5.61524 2.64667 4.13143 4.13048C2.64698 5.61492 1.90476 7.4127 1.90476 9.52381C1.90476 10.1905 1.99588 10.8492 2.1781 11.5C2.36095 12.1508 2.61905 12.7619 2.95238 13.3333H16.0952C16.4603 12.7302 16.7264 12.1031 16.8933 11.4524C17.0597 10.8016 17.1429 10.127 17.1429 9.42857C17.1429 8.87302 17.0755 8.32952 16.941 7.7981C16.8057 7.26603 16.6111 6.75397 16.3571 6.2619C16.246 6.05555 16.2143 5.84127 16.2619 5.61905C16.3095 5.39683 16.4207 5.21429 16.5952 5.07143C16.8492 4.84921 17.127 4.78571 17.4286 4.88095C17.7302 4.97619 17.9524 5.18254 18.0952 5.5C18.381 6.10317 18.6031 6.72635 18.7619 7.36952C18.9207 8.01207 19.0159 8.68254 19.0476 9.38095C19.0476 10.2857 18.9407 11.1508 18.7267 11.9762C18.5121 12.8016 18.1905 13.5873 17.7619 14.3333C17.5873 14.619 17.3492 14.8412 17.0476 15C16.746 15.1588 16.4286 15.2381 16.0952 15.2381H2.95238Z" fill="black"/>
</svg>
