<svg width="100" height="20" viewBox="0 0 100 20" fill="none" xmlns="http://www.w3.org/2000/svg">
<path d="M9.04897 2.92696C9.34897 2.00596 10.652 2.00596 10.951 2.92696L12.021 6.21896C12.0863 6.41944 12.2134 6.59414 12.384 6.71806C12.5547 6.84199 12.7601 6.9088 12.971 6.90896H16.433C17.402 6.90896 17.804 8.14896 17.021 8.71896L14.221 10.753C14.05 10.877 13.9227 11.052 13.8573 11.2528C13.7919 11.4537 13.7918 11.67 13.857 11.871L14.927 15.163C15.227 16.084 14.172 16.851 13.387 16.281L10.587 14.247C10.4162 14.123 10.2105 14.0562 9.99947 14.0562C9.78842 14.0562 9.58277 14.123 9.41197 14.247L6.61197 16.281C5.82797 16.851 4.77397 16.084 5.07297 15.163L6.14297 11.871C6.20815 11.67 6.20803 11.4537 6.14264 11.2528C6.07725 11.052 5.94994 10.877 5.77897 10.753L2.97997 8.71996C2.19697 8.14996 2.59997 6.90996 3.56797 6.90996H7.02897C7.24002 6.91001 7.44568 6.84329 7.6165 6.71935C7.78732 6.59541 7.91455 6.42061 7.97997 6.21996L9.04997 2.92796L9.04897 2.92696Z" fill="white"/>
<path d="M29.049 2.92696C29.349 2.00596 30.652 2.00596 30.951 2.92696L32.021 6.21896C32.0863 6.41944 32.2134 6.59414 32.384 6.71806C32.5547 6.84199 32.7601 6.9088 32.971 6.90896H36.433C37.402 6.90896 37.804 8.14896 37.021 8.71896L34.221 10.753C34.05 10.877 33.9227 11.052 33.8573 11.2528C33.7919 11.4537 33.7918 11.67 33.857 11.871L34.927 15.163C35.227 16.084 34.172 16.851 33.387 16.281L30.587 14.247C30.4162 14.123 30.2105 14.0562 29.9995 14.0562C29.7884 14.0562 29.5828 14.123 29.412 14.247L26.612 16.281C25.828 16.851 24.774 16.084 25.073 15.163L26.143 11.871C26.2081 11.67 26.208 11.4537 26.1426 11.2528C26.0773 11.052 25.9499 10.877 25.779 10.753L22.98 8.71996C22.197 8.14996 22.6 6.90996 23.568 6.90996H27.029C27.24 6.91001 27.4457 6.84329 27.6165 6.71935C27.7873 6.59541 27.9145 6.42061 27.98 6.21996L29.05 2.92796L29.049 2.92696Z" fill="white"/>
<path d="M49.049 2.92696C49.349 2.00596 50.652 2.00596 50.951 2.92696L52.021 6.21896C52.0863 6.41944 52.2134 6.59414 52.384 6.71806C52.5547 6.84199 52.7601 6.9088 52.971 6.90896H56.433C57.402 6.90896 57.804 8.14896 57.021 8.71896L54.221 10.753C54.05 10.877 53.9227 11.052 53.8573 11.2528C53.7919 11.4537 53.7918 11.67 53.857 11.871L54.927 15.163C55.227 16.084 54.172 16.851 53.387 16.281L50.587 14.247C50.4162 14.123 50.2105 14.0562 49.9995 14.0562C49.7884 14.0562 49.5828 14.123 49.412 14.247L46.612 16.281C45.828 16.851 44.774 16.084 45.073 15.163L46.143 11.871C46.2081 11.67 46.208 11.4537 46.1426 11.2528C46.0773 11.052 45.9499 10.877 45.779 10.753L42.98 8.71996C42.197 8.14996 42.6 6.90996 43.568 6.90996H47.029C47.24 6.91001 47.4457 6.84329 47.6165 6.71935C47.7873 6.59541 47.9145 6.42061 47.98 6.21996L49.05 2.92796L49.049 2.92696Z" fill="white"/>
<path d="M69.049 2.92696C69.349 2.00596 70.652 2.00596 70.951 2.92696L72.021 6.21896C72.0863 6.41944 72.2134 6.59414 72.384 6.71806C72.5547 6.84199 72.7601 6.9088 72.971 6.90896H76.433C77.402 6.90896 77.804 8.14896 77.021 8.71896L74.221 10.753C74.05 10.877 73.9227 11.052 73.8573 11.2528C73.7919 11.4537 73.7918 11.67 73.857 11.871L74.927 15.163C75.227 16.084 74.172 16.851 73.387 16.281L70.587 14.247C70.4162 14.123 70.2105 14.0562 69.9995 14.0562C69.7884 14.0562 69.5828 14.123 69.412 14.247L66.612 16.281C65.828 16.851 64.774 16.084 65.073 15.163L66.143 11.871C66.2081 11.67 66.208 11.4537 66.1426 11.2528C66.0773 11.052 65.9499 10.877 65.779 10.753L62.98 8.71996C62.197 8.14996 62.6 6.90996 63.568 6.90996H67.029C67.24 6.91001 67.4457 6.84329 67.6165 6.71935C67.7873 6.59541 67.9145 6.42061 67.98 6.21996L69.05 2.92796L69.049 2.92696Z" fill="white"/>
<path d="M89.049 2.92696C89.349 2.00596 90.652 2.00596 90.951 2.92696L92.021 6.21896C92.0863 6.41944 92.2134 6.59414 92.384 6.71806C92.5547 6.84199 92.7601 6.9088 92.971 6.90896H96.433C97.402 6.90896 97.804 8.14896 97.021 8.71896L94.221 10.753C94.05 10.877 93.9227 11.052 93.8573 11.2528C93.7919 11.4537 93.7918 11.67 93.857 11.871L94.927 15.163C95.227 16.084 94.172 16.851 93.387 16.281L90.587 14.247C90.4162 14.123 90.2105 14.0562 89.9995 14.0562C89.7884 14.0562 89.5828 14.123 89.412 14.247L86.612 16.281C85.828 16.851 84.774 16.084 85.073 15.163L86.143 11.871C86.2081 11.67 86.208 11.4537 86.1426 11.2528C86.0773 11.052 85.9499 10.877 85.779 10.753L82.98 8.71996C82.197 8.14996 82.6 6.90996 83.568 6.90996H87.029C87.24 6.91001 87.4457 6.84329 87.6165 6.71935C87.7873 6.59541 87.9145 6.42061 87.98 6.21996L89.05 2.92796L89.049 2.92696Z" fill="white"/>
</svg>
