<svg width="17" height="17" viewBox="0 0 17 17" fill="none" xmlns="http://www.w3.org/2000/svg">
<path d="M2.30579 0C1.69425 0 1.10777 0.24293 0.675349 0.675349C0.24293 1.10777 0 1.69425 0 2.30579V4.61157C0 5.2231 0.24293 5.80959 0.675349 6.24201C1.10777 6.67443 1.69425 6.91736 2.30579 6.91736H4.61157C5.2231 6.91736 5.80959 6.67443 6.24201 6.24201C6.67443 5.80959 6.91736 5.2231 6.91736 4.61157V2.30579C6.91736 1.69425 6.67443 1.10777 6.24201 0.675349C5.80959 0.24293 5.2231 0 4.61157 0H2.30579ZM2.30579 9.22314C1.69425 9.22314 1.10777 9.46607 0.675349 9.89849C0.24293 10.3309 0 10.9174 0 11.5289V13.8347C0 14.4462 0.24293 15.0327 0.675349 15.4651C1.10777 15.8976 1.69425 16.1405 2.30579 16.1405H4.61157C5.2231 16.1405 5.80959 15.8976 6.24201 15.4651C6.67443 15.0327 6.91736 14.4462 6.91736 13.8347V11.5289C6.91736 10.9174 6.67443 10.3309 6.24201 9.89849C5.80959 9.46607 5.2231 9.22314 4.61157 9.22314H2.30579ZM9.22314 2.30579C9.22314 1.69425 9.46607 1.10777 9.89849 0.675349C10.3309 0.24293 10.9174 0 11.5289 0H13.8347C14.4462 0 15.0327 0.24293 15.4651 0.675349C15.8976 1.10777 16.1405 1.69425 16.1405 2.30579V4.61157C16.1405 5.2231 15.8976 5.80959 15.4651 6.24201C15.0327 6.67443 14.4462 6.91736 13.8347 6.91736H11.5289C10.9174 6.91736 10.3309 6.67443 9.89849 6.24201C9.46607 5.80959 9.22314 5.2231 9.22314 4.61157V2.30579ZM9.22314 11.5289C9.22314 10.9174 9.46607 10.3309 9.89849 9.89849C10.3309 9.46607 10.9174 9.22314 11.5289 9.22314H13.8347C14.4462 9.22314 15.0327 9.46607 15.4651 9.89849C15.8976 10.3309 16.1405 10.9174 16.1405 11.5289V13.8347C16.1405 14.4462 15.8976 15.0327 15.4651 15.4651C15.0327 15.8976 14.4462 16.1405 13.8347 16.1405H11.5289C10.9174 16.1405 10.3309 15.8976 9.89849 15.4651C9.46607 15.0327 9.22314 14.4462 9.22314 13.8347V11.5289Z" fill="#E6FFEF"/>
</svg>
