<?xml version="1.0" encoding="UTF-8"?>
<svg id="Layer_1" data-name="Layer 1" xmlns="http://www.w3.org/2000/svg" viewBox="0 0 1080 1080">
  <defs>
    <style>
      .cls-1 {
        fill: #4aad77;
      }
    </style>
  </defs>
  <path class="cls-1" d="m521.63,327.36c-103.22,8.8-185.47,91.06-194.27,194.28-11.67,137,94,242.68,231,231,103.22-8.8,185.47-91.06,194.27-194.27,11.68-137-94-242.68-231-231Zm43.92,368.21l-64.46-114.63c-.52-.93-1.37-1.64-2.38-1.99l-124.12-43.45c-2.9-1.02-3.89-4.62-1.92-6.97l17.97-21.44c.82-.98,2.03-1.56,3.31-1.57l166.38-2.12c2.17-.03,4.04,1.54,4.39,3.68l26.96,164.19c.21,1.26-.15,2.55-.97,3.54l-17.97,21.44c-1.97,2.35-5.69,2.01-7.2-.67Zm65.51-77.08l-64.46-114.63c-.52-.93-1.37-1.64-2.38-1.99l-124.12-43.45c-2.9-1.02-3.89-4.62-1.92-6.97l17.97-21.44c.82-.98,2.03-1.56,3.31-1.57l166.38-2.12c2.17-.03,4.04,1.54,4.39,3.68l26.96,164.19c.21,1.26-.15,2.55-.97,3.54l-17.97,21.44c-1.97,2.35-5.69,2.01-7.2-.67Z"/>
</svg>